<svg width="179" height="61" viewBox="0 0 179 61" fill="none" xmlns="http://www.w3.org/2000/svg">
<path d="M59.9381 51.4186C60.231 42.6587 73.1757 47.6487 67.8807 49.2012C65.9957 46.6177 61.6066 48.0665 61.7774 51.4186C61.6005 54.8104 65.9896 56.2348 67.8807 53.6544C73.1666 55.1672 60.2432 60.2305 59.9351 51.4186H59.9381Z" fill="white"/>
<path d="M80.1269 51.4186C79.8799 44.7114 90.8451 44.6961 90.5889 51.4186C90.8421 58.1625 79.8829 58.1472 80.1269 51.4186ZM88.7466 51.4186C88.9113 46.7611 81.8106 46.7733 81.9692 51.4186C81.8137 56.0853 88.9113 56.0975 88.7466 51.4186Z" fill="white"/>
<path d="M101.609 42.4756C101.749 42.5824 103.323 42.2804 103.271 42.6373V56.4025C103.329 56.7411 101.743 56.491 101.609 56.5642C101.176 56.6161 101.585 42.7868 101.447 42.6373C101.447 42.5489 101.521 42.4756 101.609 42.4756Z" fill="white"/>
<path d="M114.258 42.4756C114.398 42.5824 115.972 42.2804 115.92 42.6373V56.4025C115.978 56.7411 114.392 56.491 114.258 56.5642C113.825 56.6161 114.234 42.7868 114.096 42.6373C114.096 42.5489 114.169 42.4756 114.258 42.4756Z" fill="white"/>
<path d="M136.585 52.0256H128.755C128.218 54.7585 133.275 55.9969 134.993 53.8831C137.729 55.1337 133.934 56.6618 132.153 56.5642C125.162 56.9485 125.071 46.1419 131.793 46.2914C134.727 46.1572 137.433 49.067 136.582 52.0256H136.585ZM128.752 50.7171H134.834C135.414 46.9746 128.179 46.9593 128.752 50.7171Z" fill="white"/>
<path d="M158.012 46.3859C158.467 46.3524 158.024 54.9202 158.174 55.0818C158.174 58.6322 156.371 60.2457 152.952 60.2457C151.232 60.1786 148.941 59.8461 148.221 58.6261L148.926 57.4945C151.454 59.047 156.944 59.5381 156.35 54.8805C152.748 57.284 146.62 55.6766 147.715 50.1071C148.523 45.8033 153.727 45.6539 156.444 47.5114C156.28 45.8613 156.81 46.4988 158.012 46.3829V46.3859ZM156.389 51.1533C156.582 46.8495 149.261 46.8678 149.459 51.1533C149.27 55.4509 156.575 55.4692 156.389 51.1533Z" fill="white"/>
<path d="M178.841 52.0256H171.012C170.475 54.7585 175.532 55.9969 177.249 53.8831C179.985 55.1337 176.191 56.6618 174.41 56.5642C167.419 56.9485 167.327 46.1419 174.05 46.2914C176.984 46.1572 179.689 49.067 178.838 52.0256H178.841ZM171.009 50.7171H177.091C177.67 46.9746 170.435 46.9593 171.009 50.7171Z" fill="white"/>
<path d="M7.27151 36.0465H0V1.01569H7.27151V36.0465Z" fill="white"/>
<path d="M39.5694 1.01569V7.21966H29.0891V36.0465H21.723V7.21966H11.194V1.01569H39.5694Z" fill="white"/>
<path d="M66.926 25.2337C67.1517 26.8351 67.597 28.0307 68.2619 28.8237C69.4759 30.2665 71.553 30.9863 74.4994 30.9863C76.2624 30.9863 77.6929 30.7972 78.794 30.4159C80.8803 29.6869 81.9235 28.3327 81.9235 26.3531C81.9235 25.1971 81.411 24.3004 80.3892 23.669C79.3674 23.0498 77.7448 22.5039 75.5243 22.028L71.733 21.1954C68.0057 20.3718 65.4436 19.4751 64.0497 18.5112C61.6889 16.8947 60.5085 14.3692 60.5085 10.9317C60.5085 7.79614 61.6645 5.18827 63.9734 3.11418C66.2824 1.04009 69.6741 0 74.1517 0C77.8881 0 81.0755 0.979092 83.7139 2.93423C86.3522 4.89241 87.734 7.73208 87.8651 11.4532H80.8315C80.7004 9.3456 79.7609 7.84799 78.004 6.9604C76.8358 6.37477 75.3809 6.08196 73.6424 6.08196C71.7086 6.08196 70.1652 6.46323 69.0122 7.22271C67.8593 7.98219 67.2828 9.04364 67.2828 10.407C67.2828 11.6576 67.8501 12.594 68.9878 13.2101C69.7199 13.6219 71.2693 14.1069 73.6424 14.6589L79.7884 16.1077C82.4816 16.7422 84.5008 17.5901 85.8459 18.6516C87.9353 20.2986 88.9784 22.6838 88.9784 25.8041C88.9784 28.9244 87.7401 31.6634 85.2664 33.7772C82.7927 35.8909 79.2973 36.9493 74.78 36.9493C70.2628 36.9493 66.5416 35.9061 63.8972 33.8229C61.2558 31.7397 59.9351 28.8756 59.9351 25.2307H66.9229L66.926 25.2337Z" fill="white"/>
<path d="M119.568 1.01569V7.21966H109.088V36.0465H101.722V7.21966H91.1928V1.01569H119.568Z" fill="white"/>
<path d="M175.922 20.8842C173.873 22.5954 170.945 23.4494 167.138 23.4494H159.845V36.0465H152.574V1.01569H167.614C171.082 1.01569 173.845 1.91853 175.907 3.72421C177.969 5.52989 179 8.32686 179 12.1121C179 16.248 177.975 19.1701 175.922 20.8812V20.8842ZM170.335 8.26586C169.407 7.49112 168.108 7.10071 166.44 7.10071H159.842V17.4132H166.44C168.111 17.4132 169.407 16.9923 170.335 16.1535C171.262 15.3147 171.725 13.9818 171.725 12.1609C171.725 10.3399 171.262 9.04059 170.335 8.26281V8.26586Z" fill="white"/>
<path d="M127.081 29.7479V29.7418H120.157V36.0464H145.848V29.7479H127.081Z" fill="white"/>
<path d="M129.832 15.4489H128.02H126.233V21.5309H128.02H129.862H146.107V15.4489H129.832Z" fill="white"/>
<path d="M145.848 1.01569H132.318V7.21966H145.848V1.01569Z" fill="white"/>
</svg>
