<svg width="18" height="21" viewBox="0 0 18 21" fill="none" xmlns="http://www.w3.org/2000/svg">
<path fill-rule="evenodd" clip-rule="evenodd" d="M6.40186 17.9999C6.40186 18.6889 6.67558 19.3497 7.16279 19.8369C7.65001 20.3241 8.31081 20.5978 8.99984 20.5978C9.68887 20.5978 10.3497 20.3241 10.8369 19.8369C11.3241 19.3497 11.5978 18.6889 11.5978 17.9999H6.40186ZM8.85997 1.87498C7.26879 1.87503 5.74279 2.50712 4.61762 3.63222L4.38213 3.86772C3.25702 4.99288 2.62493 6.51888 2.62489 8.11006V9.21218C2.62489 11.2372 1.82052 13.1797 0.388031 14.6121C0.202712 14.7976 0.0765266 15.0337 0.0254281 15.2909C-0.0256705 15.548 0.000612098 15.8145 0.100953 16.0567C0.201293 16.2988 0.371187 16.5058 0.589155 16.6515C0.807123 16.7971 1.06338 16.8749 1.32552 16.8749H16.6742C16.9364 16.8749 17.1927 16.7972 17.4108 16.6516C17.6288 16.5059 17.7988 16.2988 17.8991 16.0566C17.9995 15.8143 18.0257 15.5477 17.9746 15.2906C17.9234 15.0334 17.7971 14.7972 17.6117 14.6118C16.9024 13.9027 16.3398 13.0609 15.956 12.1343C15.5722 11.2078 15.3747 10.2147 15.3748 9.2118V8.11006C15.3748 6.51888 14.7427 4.99288 13.6176 3.86772L13.3821 3.63222C12.2569 2.50712 10.7309 1.87503 9.13972 1.87498H8.85997Z" fill="white"/>
<path fill-rule="evenodd" clip-rule="evenodd" d="M9.74987 1.90611V0.749994C9.74987 0.551083 9.67085 0.36032 9.5302 0.219668C9.38955 0.0790172 9.19878 0 8.99987 0C8.80096 0 8.6102 0.0790172 8.46955 0.219668C8.32889 0.36032 8.24988 0.551083 8.24988 0.749994V1.90611C8.45259 1.88538 8.65623 1.87499 8.86 1.87499H9.13975C9.34475 1.87499 9.54812 1.88536 9.74987 1.90611Z" fill="white"/>
</svg>
